<?xml version="1.0" encoding="UTF-8" standalone="no"?>
<!-- Svg Vector Icons : http://www.onlinewebfonts.com/icon -->

<svg
   xmlns:dc="http://purl.org/dc/elements/1.1/"
   xmlns:cc="http://creativecommons.org/ns#"
   xmlns:rdf="http://www.w3.org/1999/02/22-rdf-syntax-ns#"
   xmlns:svg="http://www.w3.org/2000/svg"
   xmlns="http://www.w3.org/2000/svg"
   xmlns:sodipodi="http://sodipodi.sourceforge.net/DTD/sodipodi-0.dtd"
   xmlns:inkscape="http://www.inkscape.org/namespaces/inkscape"
   version="1.1"
   x="0px"
   y="0px"
   viewBox="0 0 789.29968 989.3653"
   enable-background="new 0 0 1000 1000"
   xml:space="preserve"
   id="svg4136"
   inkscape:version="0.91 r"
   sodipodi:docname="Android_robot.svg"
   width="789.29968"
   height="989.3653"><defs
     id="defs4156" /><sodipodi:namedview
     pagecolor="#ffffff"
     bordercolor="#666666"
     borderopacity="1"
     objecttolerance="10"
     gridtolerance="10"
     guidetolerance="10"
     inkscape:pageopacity="0"
     inkscape:pageshadow="2"
     inkscape:window-width="1333"
     inkscape:window-height="846"
     id="namedview4154"
     showgrid="false"
     fit-margin-top="0"
     fit-margin-left="0"
     fit-margin-right="0"
     fit-margin-bottom="0"
     inkscape:zoom="0.236"
     inkscape:cx="498.28475"
     inkscape:cy="499.17208"
     inkscape:window-x="60"
     inkscape:window-y="47"
     inkscape:window-maximized="0"
     inkscape:current-layer="svg4136" /><metadata
     id="metadata4138"> Svg Vector Icons : http://www.onlinewebfonts.com/icon <rdf:RDF><cc:Work
     rdf:about=""><dc:format>image/svg+xml</dc:format><dc:type
       rdf:resource="http://purl.org/dc/dcmitype/StillImage" /><dc:title></dc:title></cc:Work></rdf:RDF></metadata><path
     d="m 222.9526,4.0595467 c -11.39009,6.5012583 -8.95525,14.9981543 16.67244,60.0337643 l 23.99758,42.587349 -37.84314,36.51814 c -43.12548,42.19645 -67.12306,83.15849 -67.12306,113.99832 0,32.05366 -14.2376,30.42835 240.86308,30.42835 222.14787,0 225.80012,0 233.12527,-8.106 11.39008,-12.57047 8.95524,-33.26751 -8.54257,-68.55123 -11.80277,-24.33857 -23.19284,-38.53436 -53.29815,-68.16034 L 532.56886,105.07592 557.39181,62.48857 C 571.23737,39.363844 581.80208,17.062062 580.99735,12.98849 578.95456,2.4342327 559.84729,-3.244081 551.30473,3.6480747 547.23978,6.8987037 533.41487,27.986644 520.37405,50.699898 l -24.41027,41.373505 -25.23564,-8.517466 c -35.80034,-11.768099 -112.70403,-11.768099 -146.46159,0 L 301.0737,91.661933 282.35847,58.805896 C 248.99296,0.80891771 240.86308,-6.4947097 222.9526,4.0595467 Z M 294.57392,144.00117 c 6.10773,6.50126 10.58535,15.40963 10.58535,21.91088 0,14.60726 -17.91049,32.44457 -32.54014,32.44457 -14.62965,0 -32.54014,-17.85788 -32.54014,-32.44457 0,-14.58668 17.91049,-32.44456 32.54014,-32.44456 6.47914,0 15.43439,4.44389 21.95479,10.53368 z m 244.10267,0 c 6.10772,6.50126 10.58535,15.40963 10.58535,21.91088 0,6.50126 -4.47763,15.40963 -10.58535,21.91089 -6.52041,6.08978 -15.45502,10.55425 -21.97543,10.55425 -6.49978,0 -15.45502,-4.46447 -21.97543,-10.55425 -6.10772,-6.50126 -10.58535,-15.40963 -10.58535,-21.91089 0,-6.50125 4.47763,-15.40962 10.58535,-21.91088 6.49977,-6.08979 15.45502,-10.55426 21.97543,-10.55426 6.52041,0.0206 15.47566,4.46447 21.97543,10.55426 z"
     id="path4146"
     inkscape:connector-curvature="0" /><path
     d="m 145.65687,304.24894 c -6.91246,3.64152 -7.32515,18.66025 -7.32515,217.85385 0,136.71157 1.63011,219.45858 4.47763,229.21047 6.5204,23.5362 25.21499,42.19645 50.86332,50.30245 l 21.97542,6.89216 0,71.80186 c 0,71.80186 0,72.21333 10.58535,84.7838 20.75801,24.75004 48.40785,30.83985 74.44821,17.03494 25.62769,-13.80488 28.88789,-25.96388 28.88789,-105.06937 l 0,-70.17655 71.20865,0 71.20865,0 0,69.78565 c 0,62.46145 0.80473,71.80187 8.12987,83.15849 21.56275,35.28369 64.27556,38.94579 93.57613,7.30363 10.17266,-10.55426 10.17266,-12.17957 11.39008,-84.7838 l 1.21742,-74.22955 21.97542,-6.89216 c 25.23564,-7.7151 43.95087,-26.37535 50.45065,-49.89098 6.49977,-23.12472 6.10772,-440.15159 -0.41269,-446.65285 -6.52041,-6.52183 -502.07151,-6.9333 -512.65685,-0.43204 z"
     id="path4148"
     inkscape:connector-curvature="0" /><path
     d="m 48.820533,319.24709 c -7.737828,4.46447 -19.51996,16.23257 -26.040369,26.37536 C 4.4776228,375.24843 0.41268416,404.44237 0,508.70937 0,616.6179 1.6301023,622.29622 34.995614,637.31494 c 29.692623,12.98195 58.188463,2.83916 72.838756,-25.16151 8.54256,-16.62347 8.95524,-254.35141 0.41268,-270.99545 C 94.793548,315.19409 72.01338,306.67662 48.820533,319.24709 Z"
     id="path4150"
     inkscape:connector-curvature="0" /><path
     d="m 703.87405,316.81941 c -5.28236,2.83915 -14.2376,11.7681 -19.12791,19.07172 -9.36793,13.78432 -9.36793,15.40963 -9.36793,139.13926 0,135.9092 0.41268,139.55073 22.78016,156.99714 16.69307,12.98194 34.58293,14.60725 56.14567,5.26684 33.36552,-15.01873 34.99562,-20.69704 34.99562,-126.98026 0,-50.30245 -2.04279,-102.23021 -4.47762,-115.62363 -10.56471,-56.78313 -49.21259,-94.08307 -80.94799,-77.87107 z"
     id="path4152"
     inkscape:connector-curvature="0" /></svg>