<?xml version="1.0" standalone="no"?>
<!DOCTYPE svg PUBLIC "-//W3C//DTD SVG 20010904//EN"
 "http://www.w3.org/TR/2001/REC-SVG-20010904/DTD/svg10.dtd">
<svg version="1.0" xmlns="http://www.w3.org/2000/svg"
 width="310.000000pt" height="310.000000pt" viewBox="0 0 310.000000 310.000000"
 preserveAspectRatio="xMidYMid meet">
<metadata>
Created by potrace 1.11, written by Peter Selinger 2001-2013
</metadata>
<g transform="translate(0.000000,310.000000) scale(0.100000,-0.100000)"
fill="#000000" stroke="none">
<path d="M1510 2748 c-129 -35 -198 -188 -140 -311 86 -183 352 -164 417 29
19 55 9 128 -23 181 -54 87 -155 127 -254 101z"/>
<path d="M2325 2424 c-127 -30 -245 -94 -440 -237 -60 -44 -131 -95 -157 -114
l-48 -33 -17 28 c-10 15 -23 34 -30 42 -115 148 -193 217 -298 265 -89 41
-116 47 -246 51 -115 4 -173 -9 -281 -60 -52 -25 -206 -120 -218 -135 -3 -3
-23 -19 -45 -36 -22 -16 -57 -45 -78 -64 -61 -58 -67 -58 -68 -9 -2 131 -9
271 -13 275 -4 4 -163 4 -318 0 -16 0 -28 -5 -29 -11 -4 -53 12 -2150 17
-2157 2 -3 84 -7 183 -7 160 0 181 1 184 16 3 9 4 363 3 787 -2 605 1 776 11
796 25 54 188 177 320 243 110 55 164 69 246 64 153 -10 313 -126 355 -258 16
-49 20 -79 27 -215 4 -66 9 -122 11 -124 2 -2 25 6 51 17 75 32 169 23 254
-25 3 -2 6 2 6 9 0 7 3 69 7 138 l7 124 52 50 c220 209 379 290 567 291 84 0
102 -3 151 -27 109 -54 191 -167 222 -306 12 -51 14 -201 12 -821 l-1 -759
100 3 c56 2 135 4 177 4 l76 1 -3 158 c-1 86 -5 276 -8 422 -3 146 -8 387 -11
535 -11 521 -13 555 -35 640 -48 183 -138 311 -263 374 -123 62 -321 92 -432
65z"/>
<path d="M870 2050 c-113 -20 -184 -105 -185 -220 0 -83 31 -142 96 -186 153
-102 363 12 354 191 -8 138 -132 238 -265 215z"/>
<path d="M2179 2041 c-93 -18 -174 -101 -186 -190 -18 -135 88 -252 230 -253
76 -1 125 19 177 73 48 50 64 94 58 168 -10 134 -140 228 -279 202z"/>
<path d="M1478 1507 c-122 -46 -181 -186 -127 -302 69 -147 247 -180 360 -66
106 105 89 263 -38 349 -44 30 -140 39 -195 19z"/>
<path d="M1685 1050 c-35 -36 -73 -48 -141 -45 -51 3 -101 21 -141 51 l-22 16
-1 -319 c-1 -175 -2 -359 -2 -409 0 -51 2 -96 5 -100 4 -7 252 -10 335 -5 11
1 13 75 9 417 -3 228 -7 417 -9 420 -3 2 -17 -10 -33 -26z"/>
</g>
</svg>
